HIERARCHY
ROOT hip
{
  OFFSET 0 0 0
  CHANNELS 6 Xposition Yposition Zposition Zrotation Yrotation Xrotation
  JOINT abdomen
  {
    OFFSET 0 20.6881 -0.73152
    CHANNELS 3 Zrotation Xrotation Yrotation
    JOINT chest
    {
      OFFSET 0 11.7043 -0.48768
      CHANNELS 3 Zrotation Xrotation Yrotation
      JOINT neck
      {
        OFFSET 0 22.1894 -2.19456
        CHANNELS 3 Zrotation Xrotation Yrotation
        JOINT head
        {
          OFFSET -0.24384 7.07133 1.2192
          CHANNELS 3 Zrotation Xrotation Yrotation
          JOINT leftEye
          {
            OFFSET 4.14528 8.04674 8.04672
            CHANNELS 3 Zrotation Xrotation Yrotation
            End Site
            {
              OFFSET 1 0 0
            }
          }
          JOINT rightEye
          {
            OFFSET -3.6576 8.04674 8.04672
            CHANNELS 3 Zrotation Xrotation Yrotation
            End Site
            {
              OFFSET 1 0 0
            }
          }
        }
      }
      JOINT rCollar
      {
        OFFSET -2.68224 19.2634 -4.8768
        CHANNELS 3 Zrotation Xrotation Yrotation
        JOINT rShldr
        {
          OFFSET -8.77824 -1.95073 1.46304
          CHANNELS 3 Zrotation Xrotation Yrotation
          JOINT rForeArm
          {
            OFFSET -28.1742 -1.7115 0.48768
            CHANNELS 3 Zrotation Xrotation Yrotation
            JOINT rHand
            {
              OFFSET -22.5879 0.773209 7.07136
              CHANNELS 3 Zrotation Xrotation Yrotation
              JOINT rThumb1
              {
                OFFSET -1.2192 -0.487915 3.41376
                CHANNELS 3 Zrotation Xrotation Yrotation
                JOINT rThumb2
                {
                  OFFSET -3.37035 -0.52449 3.41376
                  CHANNELS 3 Zrotation Xrotation Yrotation
                  End Site
                  {
                    OFFSET -1.78271 -1.18214 1.43049
                  }
                }
              }
              JOINT rIndex1
              {
                OFFSET -7.75947 0.938293 5.60832
                CHANNELS 3 Zrotation Xrotation Yrotation
                JOINT rIndex2
                {
                  OFFSET -2.54057 -0.884171 1.56538
                  CHANNELS 3 Zrotation Xrotation Yrotation
                  End Site
                  {
                    OFFSET -1.62519 -0.234802 1.16502
                  }
                }
              }
              JOINT rMid1
              {
                OFFSET -8.24714 1.18213 3.41376
                CHANNELS 3 Zrotation Xrotation Yrotation
                JOINT rMid2
                {
                  OFFSET -3.10165 -0.590103 1.0647
                  CHANNELS 3 Zrotation Xrotation Yrotation
                  End Site
                  {
                    OFFSET -2.48547 -0.328903 0.83742
                  }
                }
              }
              JOINT rRing1
              {
                OFFSET -8.82822 0.546677 1.51678
                CHANNELS 3 Zrotation Xrotation Yrotation
                JOINT rRing2
                {
                  OFFSET -2.60934 -0.819778 -0.0198488
                  CHANNELS 3 Zrotation Xrotation Yrotation
                  End Site
                  {
                    OFFSET -2.33842 -0.294052 0.168128
                  }
                }
              }
              JOINT rPinky1
              {
                OFFSET -8.27202 -0.0477905 -0.4584
                CHANNELS 3 Zrotation Xrotation Yrotation
                JOINT rPinky2
                {
                  OFFSET -1.82734 -0.647385 -0.700984
                  CHANNELS 3 Zrotation Xrotation Yrotation
                  End Site
                  {
                    OFFSET -1.69225 -0.51767 -0.607171
                  }
                }
              }
            }
          }
        }
      }
      JOINT lCollar
      {
        OFFSET 2.68224 19.2634 -4.8768
        CHANNELS 3 Zrotation Xrotation Yrotation
        JOINT lShldr
        {
          OFFSET 8.77824 -1.95073 1.46304
          CHANNELS 3 Zrotation Xrotation Yrotation
          JOINT lForeArm
          {
            OFFSET 28.1742 -1.7115 0.48768
            CHANNELS 3 Zrotation Xrotation Yrotation
            JOINT lHand
            {
              OFFSET 22.5879 0.773209 7.07136
              CHANNELS 3 Zrotation Xrotation Yrotation
              JOINT lThumb1
              {
                OFFSET 1.2192 -0.487915 3.41376
                CHANNELS 3 Zrotation Xrotation Yrotation
                JOINT lThumb2
                {
                  OFFSET 3.37035 -0.52449 3.41376
                  CHANNELS 3 Zrotation Xrotation Yrotation
                  End Site
                  {
                    OFFSET 1.78271 -1.18214 1.43049
                  }
                }
              }
              JOINT lIndex1
              {
                OFFSET 7.75947 0.938293 5.60832
                CHANNELS 3 Zrotation Xrotation Yrotation
                JOINT lIndex2
                {
                  OFFSET 2.54057 -0.884171 1.56538
                  CHANNELS 3 Zrotation Xrotation Yrotation
                  End Site
                  {
                    OFFSET 1.62519 -0.234802 1.16502
                  }
                }
              }
              JOINT lMid1
              {
                OFFSET 8.24714 1.18213 3.41376
                CHANNELS 3 Zrotation Xrotation Yrotation
                JOINT lMid2
                {
                  OFFSET 3.10165 -0.590103 1.0647
                  CHANNELS 3 Zrotation Xrotation Yrotation
                  End Site
                  {
                    OFFSET 2.48547 -0.328903 0.83742
                  }
                }
              }
              JOINT lRing1
              {
                OFFSET 8.82822 0.546677 1.51678
                CHANNELS 3 Zrotation Xrotation Yrotation
                JOINT lRing2
                {
                  OFFSET 2.60934 -0.819778 -0.0198488
                  CHANNELS 3 Zrotation Xrotation Yrotation
                  End Site
                  {
                    OFFSET 2.33842 -0.294052 0.168128
                  }
                }
              }
              JOINT lPinky1
              {
                OFFSET 8.27202 -0.0477905 -0.4584
                CHANNELS 3 Zrotation Xrotation Yrotation
                JOINT lPinky2
                {
                  OFFSET 1.82734 -0.647385 -0.700984
                  CHANNELS 3 Zrotation Xrotation Yrotation
                  End Site
                  {
                    OFFSET 1.69225 -0.51767 -0.607171
                  }
                }
              }
            }
          }
        }
      }
    }
  }
  JOINT rButtock
  {
    OFFSET -8.77824 4.35084 1.2192
    CHANNELS 3 Zrotation Xrotation Yrotation
    JOINT rThigh
    {
      OFFSET 0 -1.70687 -2.19456
      CHANNELS 3 Zrotation Xrotation Yrotation
      JOINT rShin
      {
        OFFSET 0 -36.8199 0.73152
        CHANNELS 3 Zrotation Xrotation Yrotation
        JOINT rFoot
        {
          OFFSET 0.73152 -45.1104 -5.12064
          CHANNELS 3 Zrotation Xrotation Yrotation
          End Site
          {
            OFFSET -1.1221 -3.69964 12.103
          }
        }
      }
    }
  }
  JOINT lButtock
  {
    OFFSET 8.77824 4.35084 1.2192
    CHANNELS 3 Zrotation Xrotation Yrotation
    JOINT lThigh
    {
      OFFSET 0 -1.70687 -2.19456
      CHANNELS 3 Zrotation Xrotation Yrotation
      JOINT lShin
      {
        OFFSET 0 -36.8199 0.73152
        CHANNELS 3 Zrotation Xrotation Yrotation
        JOINT lFoot
        {
          OFFSET -0.73152 -45.1104 -5.12064
          CHANNELS 3 Zrotation Xrotation Yrotation
          End Site
          {
            OFFSET 1.1221 -3.69964 12.103
          }
        }
      }
    }
  }
}
MOTION
Frames:	5
Frame Time:	0.00833333
0.0 0.0 0.0 0.0 0.0 0.0 0.0 0.0 0.0 0.0 0.0 0.0 0.0 0.0 0.0 0.0 0.0 0.0 0.0 0.0 0.0 0.0 0.0 0.0 0.0 0.0 0.0 0.0 0.0 0.0 0.0 0.0 0.0 0.0 0.0 0.0 0.0 0.0 0.0 0.0 0.0 0.0 0.0 0.0 0.0 0.0 0.0 0.0 0.0 0.0 0.0 0.0 0.0 0.0 0.0 0.0 0.0 0.0 0.0 0.0 0.0 0.0 0.0 0.0 0.0 0.0 0.0 0.0 0.0 0.0 0.0 0.0 0.0 0.0 0.0 0.0 0.0 0.0 0.0 0.0 0.0 0.0 0.0 0.0 0.0 0.0 0.0 0.0 0.0 0.0 0.0 0.0 0.0 0.0 0.0 0.0 0.0 0.0 0.0 0.0 0.0 0.0 0.0 0.0 0.0 0.0 0.0 0.0 0.0 0.0 0.0 0.0 0.0 0.0 0.0 0.0 0.0 0.0 0.0 0.0 0.0 0.0 0.0 0.0 0.0 0.0 0.0 0.0 0.0 0.0 0.0 0.0
37.4622 47.957699999999996 6.5137 -84.078731 -84.359713 86.741771 -0.810079 0.500411 -0.0 -0.167216 -2.585594 0.476336 10.663873 4.614944 73.472786 -7.035233 8.408975 -77.028223 0.00214 0.0 0.000463 -0.004156 -0.0 0.000147 -142.974269 39.43198 147.390818 -150.08252 11.268008 168.824905 177.840872 -47.506005 132.177318 172.112418 -15.225716 143.802854 3.050952 -3.032509 -0.389349 -42.429696 28.428146 36.787472 29.397066 -49.646668 -4.161224 -172.69681 -36.283484 109.102046 -1.810061 5.118759 1.058641 -172.234213 -31.84042 144.075024 -145.099366 -1.522372 -178.650542 12.077709 52.985654 -2.683867 -23.388804 -36.350433 -22.492037 -75.5184 -54.589055 -75.891858 -4.210151 -43.443124 8.382536 134.567685 70.526959 -130.98405 4.758693 -59.443999 -1.087955 2.298899 4.172895 0.557451 7.758089 7.439298 -1.681965 137.84594 -41.301223 -114.497558 -14.584271 -26.169864 5.607261 -4.922143 13.340353 -1.524598 157.052759 3.99364 -141.298526 2.207773 14.698114 -3.03739 145.120057 0.226907 179.198888 154.428645 71.871293 -169.607684 -29.927724 82.262746 -7.940504 11.411681 -25.517002 12.224059 -179.969334 75.751434 -0.025232 167.882618 61.362191 28.990765 10.994712 26.82705 -106.38503 -6.992362 -54.353756 83.317993 -0.000779 0.001072 0.001002 6.032714 -16.86344 39.172906 9.880266 28.703234 -70.990852 -45.036601 -54.929579 35.225771
37.4703 47.9532 6.508799999999999 -83.711615 -84.344746 86.418655 1.272835 0.222925 -48.7003 2.222285 -4.293601 49.912204 11.548787 8.664423 101.033784 -6.052341 11.593685 -108.717147 0.002159 -0.0 -2.3e-05 0.002159 -0.0 -2.3e-05 -30.013243 58.294055 32.423 14.289906 -0.033238 -1.973213 46.866062 -76.78901 59.54549 -11.739223 28.301505 1.480861 1.590378 -1.57575 -0.223672 -76.780828 26.674327 69.783289 -141.998585 -0.613138 116.933101 94.217201 -70.274287 42.834875 -0.058402 0.16785 0.031012 -129.269174 52.114773 118.503236 -0.023627 -1.72511 -0.542714 11.558077 -44.450017 -5.503029 -1.206408 -3.046501 -1.118966 -127.262545 -31.006303 -125.741714 28.702788 57.498512 -31.080723 158.160248 -28.092328 171.095476 -40.294095 1.499936 11.959311 124.538803 69.471733 -102.509368 0.491299 0.484782 -0.077691 25.335441 21.326325 -22.584486 138.493178 4.896733 -114.865602 7.35768 27.509433 1.356537 36.036782 51.722447 -29.833695 163.093476 -4.756754 -143.254784 145.118724 0.185294 179.186804 -12.061729 35.707253 4.954071 7.906524 -17.072063 7.45657 158.275929 52.467041 149.866626 -0.002074 -0.00033 -0.001037 -16.356702 -25.037084 -99.46322 -60.586443 14.665299 -59.162867 -117.665533 61.61088 -144.590696 -0.002074 -0.00033 -0.001037 22.459329 -26.885618 -85.801475 -65.250301 -20.097338 -131.830798 166.740685 31.988878 114.902928
37.4764 47.949000000000005 6.5067 -83.077759 -84.331324 85.824775 0.403062 -3.167884 -163.700899 1.263031 2.823738 165.302129 -8.852451 7.473894 -74.822508 9.436671 8.744818 64.009181 0.002886 0.0 0.002391 0.002963 -0.0 -0.002446 -3.767899 17.920959 4.641409 -10.752741 -75.07442 -21.391633 156.761625 -63.375653 96.175552 178.322562 -2.501896 143.885605 2.017113 -2.000092 -0.275105 120.834617 -84.402904 49.457591 5.742173 -9.850947 -2.891094 87.746595 -60.20708 35.305309 68.981825 -80.154741 40.575493 -170.563348 -26.234382 144.091793 -145.111788 -0.627815 -178.932525 -54.774024 87.579709 68.040675 -127.125848 -26.188009 -124.830602 -160.063546 52.826673 -147.26954 -3.542574 -62.053039 13.038835 109.345733 66.259907 -104.024959 0.598095 -26.629977 -24.822688 5.470358 7.375678 1.129951 10.203282 9.662119 -2.405501 157.517076 -62.727606 -110.127383 166.824581 -43.973231 -122.060814 -174.287394 -54.27725 -108.031624 160.825588 -7.142266 -143.31502 163.464222 -5.305349 -143.017134 72.965099 -72.143668 89.989853 150.971108 -0.741921 -176.456514 1.150053 -2.914767 1.063109 128.710118 -29.14002 127.105315 -0.000836 0.000424 0.001074 -34.680642 -29.382261 86.759389 67.64399 -44.903699 -80.731364 50.421121 -46.332972 -9.87698 0.003034 -0.000612 0.001517 38.129259 -30.296525 22.319646 -57.588934 68.698665 99.840437 -164.663145 1.554811 28.16278
37.4865 47.9429 6.502800000000001 -82.661686 -84.320901 85.467845 -0.087658 1.833391 -0.000846 0.433246 -9.434156 2.001088 9.376435 2.169987 67.662546 -3.867126 5.700328 -80.822669 -0.00036 -0.0 0.00113 -9.8e-05 -0.0 0.002132 4.208546 -43.443062 -8.384896 5.382792 -61.807092 5.132544 -112.287436 -55.698568 -174.173508 151.659648 -58.115947 129.795457 -5.433106 5.265059 1.078918 -55.024862 26.545525 51.774703 -153.45264 -21.068023 121.744232 -173.771748 -39.138143 116.677544 -82.84149 61.110702 74.531867 -163.358535 -5.623214 143.252482 0.000944 0.063784 0.020843 -148.9367 42.728729 163.654054 -125.81014 -27.878311 -123.551931 -146.916844 12.096867 -142.116933 158.801955 -59.220565 -173.215452 125.332989 44.106501 -131.459085 179.463778 -9.732179 -111.9129 -176.112498 -12.240519 -143.564632 -66.257773 -46.843128 -22.116561 155.729036 -34.909746 -131.008931 153.453807 -21.067385 -121.744988 -178.111844 -49.307051 -112.371723 160.097854 -4.900969 -142.969794 86.811634 63.814206 -78.620501 69.297485 72.945671 -87.017674 -3.023843 45.858051 -2.889465 17.349276 -30.44117 16.588832 145.700938 8.315478 142.683819 179.787372 75.750586 0.163884 135.001089 28.908661 -0.0 174.174302 84.648027 100.851937 -175.466095 -19.919141 -75.118009 -0.005383 -0.001018 -0.002691 51.090797 -31.140896 67.343363 154.596934 79.471627 101.88976 130.818305 86.951364 -25.362507
